<?xml version="1.0" standalone="no"?><!-- Generator: Gravit.io --><svg xmlns="http://www.w3.org/2000/svg" xmlns:xlink="http://www.w3.org/1999/xlink" style="isolation:isolate" viewBox="0 0 512 500" width="512" height="500"><path d=" M 365.986 331.346 C 369.988 328.387 371.467 324.56 370.423 319.861 C 369.031 314.292 364.768 309.246 357.633 304.721 C 349.628 299.675 344.668 295.498 342.754 292.192 C 355.632 286.449 369.902 288.624 385.564 298.718 C 406.098 311.769 420.107 318.817 427.59 319.861 C 432.115 320.383 439.946 319.6 451.083 317.512 C 462.047 315.25 470.487 314.553 476.403 315.423 C 489.629 317.512 498.33 324.473 502.507 336.306 C 505.987 346.747 505.726 359.364 501.724 374.156 C 497.895 388.252 491.891 400.694 483.712 411.484 C 475.011 422.795 466.223 428.973 457.348 430.017 C 445.688 431.583 432.811 426.624 418.715 415.138 C 402.183 401.39 390.262 393.646 382.953 391.906 C 384.346 392.254 378.342 392.254 364.942 391.906 C 357.981 391.732 352.674 388.164 349.019 381.203 C 362.941 380.507 369.815 375.373 369.641 365.802 C 369.466 359.885 366.16 351.619 359.721 341.004 C 359.547 337.523 361.635 334.304 365.986 331.346 L 365.986 331.346 Z  M 71.54 76.316 C 104.605 56.652 135.665 44.469 164.727 39.771 C 173.254 38.379 188.481 37.77 210.408 37.944 C 229.376 37.944 243.82 36.465 253.739 33.506 C 264.006 33.332 272.098 36.812 278.015 43.947 C 283.062 50.386 285.585 58.391 285.585 67.963 C 285.411 77.36 282.801 85.8 277.754 93.283 C 272.186 101.288 264.877 106.073 255.827 107.64 C 252.521 108.162 247.474 107.118 240.687 104.507 C 234.597 102.071 229.028 101.723 223.982 103.463 C 214.932 114.253 211.017 125.651 212.235 137.659 C 212.931 146.186 216.847 157.323 223.982 171.071 C 233.727 190.04 239.644 202.047 241.732 207.094 C 247.301 222.06 249.128 236.242 247.214 249.642 C 249.476 251.73 277.059 271.569 329.961 309.158 C 337.966 314.9 342.578 318.468 343.796 319.86 C 347.973 325.081 347.625 330.736 342.752 336.827 C 327.612 329.518 309.862 318.294 289.501 303.154 C 262.528 283.141 245.648 270.96 238.861 266.609 C 230.682 269.741 225.722 271.221 223.982 271.046 C 218.414 266.348 211.366 255.732 202.838 239.2 L 187.96 239.2 C 185.871 233.11 179.781 227.802 169.687 223.278 C 158.898 218.579 152.285 213.967 149.849 209.443 C 153.851 204.744 160.638 203.787 170.21 206.572 C 180.825 209.878 187.438 210.835 190.048 209.443 C 179.259 180.729 165.859 159.499 149.849 145.751 C 121.658 168.896 106.779 181.687 105.213 184.123 C 107.475 188.299 118.09 202.569 137.059 226.932 C 150.807 244.683 158.551 261.476 160.291 277.312 C 161.509 288.101 158.551 316.293 151.416 361.887 C 146.021 396.517 148.98 421.315 160.291 436.281 L 166.817 439.413 C 169.601 440.632 171.777 441.676 173.343 442.546 C 177.867 445.33 180.652 448.898 181.696 453.248 C 175.083 463.168 161.248 467.518 140.192 466.3 C 120.701 465.256 106.257 460.905 96.86 453.248 C 98.6 401.738 99.296 369.283 98.949 355.883 C 85.549 352.577 77.718 349.705 75.456 347.269 C 74.586 335.262 75.021 320.557 76.761 303.155 C 79.023 283.49 80.067 269.22 79.893 260.345 C 74.151 250.774 62.404 235.46 44.654 214.403 C 28.122 195.087 17.245 180.034 12.025 169.244 C 5.412 156.019 5.412 142.532 12.025 128.784 C 19.334 112.948 39.172 95.459 71.54 76.316 L 71.54 76.316 Z " fill="rgb(0,0,0)"/></svg>