<svg width="512" height="512" viewBox="0 0 512 512"><path d="m491 469l0-21l-22 0l0 21l-21 0l0-213l-107 0l0 213l-21 0l0-426l-107 0l0 426l-21 0l0-256l-21 0l0-21l-22 0l0 21l-42 0l0-21l-22 0l0 277l-42 0l0-469l-43 0l0 512l512 0l0-43z m-342 0l-21 0l0-213l21 0z m128 0l-21 0l0-384l21 0z m128 0l-21 0l0-170l21 0z m-320-469l22 0l0 21l-22 0z m64 0l22 0l0 21l-22 0z m64 0l22 0l0 21l-22 0z m64 0l22 0l0 21l-22 0z m64 0l22 0l0 21l-22 0z m64 0l22 0l0 21l-22 0z m64 0l22 0l0 21l-22 0z m0 64l22 0l0 21l-22 0z m-64 0l22 0l0 21l-22 0z m-64 0l22 0l0 21l-22 0z m0 64l22 0l0 21l-22 0z m64 0l22 0l0 21l-22 0z m64 0l22 0l0 21l-22 0z m0 64l22 0l0 21l-22 0z m-64 0l22 0l0 21l-22 0z m-64 0l22 0l0 21l-22 0z m128 64l22 0l0 21l-22 0z m0 64l22 0l0 21l-22 0z m0 64l22 0l0 21l-22 0z m-320-320l22 0l0 21l-22 0z m0 64l22 0l0 21l-22 0z m-64 0l22 0l0 21l-22 0z m0-64l22 0l0 21l-22 0z"></path></svg>
