<?xml version="1.0" standalone="no"?><!-- Generator: Gravit.io --><svg xmlns="http://www.w3.org/2000/svg" xmlns:xlink="http://www.w3.org/1999/xlink" style="isolation:isolate" viewBox="-2.111 0 516.222 512" width="516.222" height="512"><path d=" M 141.318 283.651 C 145.3 284.078 149.424 282.371 153.69 278.532 C 157.956 274.55 159.378 270.924 157.956 267.654 C 156.249 263.672 150.277 261.752 140.039 261.895 C 139.612 264.597 138.688 266.516 137.266 267.654 C 135.844 268.649 135.062 270.213 134.919 272.346 C 134.493 279.314 136.626 283.082 141.318 283.651 Z  M 156.676 285.571 C 152.126 288.841 146.579 288.983 140.038 285.997 C 133.355 283.011 130.298 278.745 130.867 273.199 C 131.293 268.365 134.066 264.099 139.185 260.402 C 144.304 256.562 149.068 255.283 153.476 256.562 C 158.737 257.984 161.795 262.677 162.648 270.64 C 163.217 277.465 161.226 282.442 156.676 285.571 Z  M 368.052 266.374 C 366.345 263.672 363.786 262.321 360.373 262.321 C 357.245 262.464 354.543 263.814 352.268 266.374 C 349.708 268.933 348.642 272.062 349.068 275.759 C 349.495 280.451 352.054 283.438 356.747 284.717 C 361.582 286.139 365.919 284.86 369.758 280.878 C 370.753 274.621 370.184 269.787 368.052 266.374 Z  M 370.611 263.601 C 373.739 267.014 375.233 271.209 375.09 276.186 C 375.09 281.163 373.384 284.86 369.971 287.277 C 366.132 289.979 360.871 290.192 354.188 287.917 C 344.945 284.504 341.816 278.745 344.803 270.64 C 347.646 263.103 351.912 259.051 357.6 258.482 C 363.004 257.913 367.341 259.619 370.611 263.601 Z  M 480.672 119.413 C 483.658 121.973 486.004 124.107 487.71 125.813 C 492.829 130.932 496.1 136.549 497.522 142.663 C 500.792 139.961 502.356 136.406 502.214 131.998 C 502.072 127.732 500.579 123.751 497.735 120.054 C 494.891 116.072 491.336 113.37 487.07 111.948 C 482.52 110.526 477.97 111.024 473.42 113.441 L 480.672 119.413 Z  M 451.877 134.131 C 452.019 127.022 454.579 120.125 459.555 113.442 C 453.156 111.451 445.122 110.314 435.453 110.029 C 430.192 122.685 422.726 146.858 413.057 182.55 C 391.87 183.687 360.586 183.616 319.207 182.336 C 278.965 181.056 248.606 181.128 228.13 182.55 C 234.386 187.669 243.7 190.37 256.071 190.655 C 259.768 190.655 265.172 190.441 272.282 190.015 C 279.818 189.588 285.293 189.375 288.705 189.375 C 396.775 189.375 461.759 189.944 483.658 191.081 C 484.938 192.93 485.577 194.636 485.577 196.2 C 490.128 191.081 492.972 182.265 494.109 169.752 C 495.247 157.096 494.109 146.929 490.697 139.251 C 489.274 140.104 487.07 141.739 484.084 144.156 C 481.525 146.147 479.534 147.569 478.112 148.422 C 473.562 150.84 468.514 151.266 462.968 149.702 C 455.432 147.569 451.735 142.379 451.877 134.131 L 451.877 134.131 Z  M 384.475 123.68 C 397.7 128.515 407.796 133.136 414.764 137.544 C 415.048 134.985 416.399 130.363 418.816 123.68 C 420.807 118.134 421.731 113.015 421.589 108.323 C 418.176 108.607 405.947 108.465 384.902 107.896 C 369.829 107.469 359.022 108.749 352.481 111.735 C 356.32 113.442 366.985 117.423 384.475 123.68 L 384.475 123.68 Z  M 292.118 116.854 C 300.792 121.547 320.344 120.978 350.775 115.148 C 348.215 109.46 340.394 106.901 327.312 107.469 C 308.115 108.323 297.522 108.607 295.531 108.323 C 293.825 113.726 292.687 116.57 292.118 116.854 L 292.118 116.854 Z  M 353.761 172.098 L 399.193 172.098 C 406.729 166.979 409.786 161.291 408.364 155.034 C 407.085 149.489 402.534 144.227 394.713 139.251 C 376.797 127.875 358.098 124.462 338.617 129.012 C 320.273 133.278 308.755 147.64 304.063 172.098 L 353.761 172.098 L 353.761 172.098 Z  M 260.764 142.877 C 252.943 143.161 247.255 142.521 243.7 140.957 C 241.852 139.962 240.216 137.331 238.794 133.065 C 237.23 128.942 235.382 126.382 233.249 125.387 C 230.12 126.524 224.077 127.093 215.119 127.093 C 206.444 127.093 200.401 127.733 196.988 129.013 C 225.286 149.773 241.994 163.567 247.113 170.392 C 249.388 170.25 256.356 170.321 268.016 170.605 C 276.832 170.89 283.089 170.25 286.786 168.686 C 288.066 166.979 293.114 159.869 301.93 147.356 C 308.044 138.824 312.808 131.501 316.221 125.387 L 290.412 125.387 C 289.132 126.951 287.426 129.937 285.293 134.345 C 283.444 138.327 281.667 141.099 279.96 142.663 C 278.254 142.521 271.855 142.592 260.764 142.877 L 260.764 142.877 Z  M 243.7 127.306 C 242.847 131.003 244.482 133.99 248.606 136.265 C 252.303 138.114 256.995 139.038 262.683 139.038 C 268.371 139.038 273.064 138.042 276.761 136.052 C 280.884 133.777 282.52 130.861 281.667 127.306 C 269.011 123.325 256.356 123.325 243.7 127.306 Z  M 235.168 108.323 C 235.026 117.993 241.496 122.543 254.578 121.974 C 257.991 121.832 263.679 121.192 271.642 120.054 C 278.894 118.917 283.942 118.419 286.786 118.562 C 286.501 116.855 286.857 115.149 287.852 113.442 C 288.848 111.736 289.132 110.03 288.706 108.323 C 269.082 104.911 251.237 104.911 235.168 108.323 L 235.168 108.323 Z  M 129.801 110.03 C 131.792 116.713 137.907 120.623 148.145 121.761 C 149.282 121.903 159.236 121.974 178.006 121.974 C 209.716 121.974 228.131 120.837 233.25 118.562 C 232.112 111.309 226.14 107.115 215.333 105.977 C 211.636 105.693 206.588 105.693 200.189 105.977 C 191.515 106.261 186.467 106.404 185.045 106.404 C 153.05 106.404 134.636 107.612 129.801 110.03 L 129.801 110.03 Z  M 81.383 106.404 C 80.246 110.812 83.161 120.624 90.129 135.839 C 92.688 134.985 98.803 132.497 108.472 128.373 C 116.008 125.245 122.55 123.112 128.095 121.974 C 127.953 122.117 127.384 118.135 126.389 110.03 C 119.99 106.333 104.988 105.124 81.383 106.404 L 81.383 106.404 Z  M 59.201 120.908 C 62.044 124.89 63.111 129.297 62.4 134.132 C 61.831 137.972 59.627 141.313 55.788 144.157 C 52.233 146.859 48.251 148.21 43.843 148.21 C 39.15 148.352 35.382 146.788 32.538 143.517 C 29.126 139.82 27.562 134.417 27.846 127.307 C 16.754 132.853 11.422 147.215 11.849 170.393 C 11.991 176.792 12.702 186.746 13.982 200.254 C 15.261 213.052 15.83 222.082 15.688 227.343 C 18.39 224.783 19.67 219.451 19.527 211.346 C 19.243 198.832 19.172 192.078 19.314 191.082 C 50.74 192.078 73.136 183.475 86.502 165.274 C 72.851 127.307 65.955 108.324 65.813 108.324 C 64.533 108.182 60.551 109.319 53.868 111.736 C 54.01 112.874 55.788 115.931 59.2 120.908 L 59.201 120.908 Z  M 30.619 114.509 C 38.013 110.243 42.848 107.541 45.123 106.403 C 38.155 103.56 31.543 103.702 25.287 106.83 C 18.746 110.101 15.546 115.149 15.688 121.974 C 19.812 120.41 24.789 117.922 30.619 114.509 L 30.619 114.509 Z  M 466.381 389.232 C 467.376 390.37 468.585 390.939 470.007 390.939 C 473.562 390.797 474.7 388.095 473.42 382.834 C 469.865 382.265 466.95 382.834 464.674 384.54 C 464.674 386.531 465.243 388.095 466.381 389.232 L 466.381 389.232 Z  M 40.004 389.661 C 40.715 387.102 40.573 384.969 39.578 383.262 C 38.725 381.982 37.445 381.343 35.738 381.343 C 33.89 381.343 32.539 381.982 31.686 383.262 C 30.69 384.969 30.548 387.102 31.259 389.661 L 40.004 389.661 L 40.004 389.661 Z  M 24.434 196.201 L 24.434 246.326 C 32.255 232.391 40.858 215.114 50.243 194.495 C 42.848 192.646 34.246 193.215 24.434 196.201 L 24.434 196.201 Z  M 171.181 303.062 C 179.002 296.095 182.984 286.354 183.126 273.841 C 183.411 261.47 179.642 251.516 171.821 243.979 C 163.147 235.305 151.416 232.675 136.628 236.087 C 130.513 237.509 125.038 241.633 120.204 248.459 C 115.511 255.142 112.667 262.607 111.672 270.855 C 110.534 279.813 111.885 287.563 115.724 294.104 C 119.99 301.498 126.958 306.333 136.627 308.608 C 150.847 313.016 162.365 311.168 171.181 303.062 Z  M 226.425 168.686 C 219.742 156.315 207.015 146.29 188.245 138.612 C 167.911 130.08 147.862 128.018 128.096 132.426 C 102.927 137.972 92.547 147.143 96.955 159.941 C 113.592 153.542 131.864 150.912 151.772 152.049 C 172.106 153.329 189.525 158.306 204.029 166.98 C 212.561 172.099 220.026 172.668 226.425 168.686 Z  M 339.899 241.42 C 332.078 246.966 326.888 254.644 324.328 264.456 C 321.626 274.268 322.409 283.226 326.675 291.331 C 331.367 300.432 339.401 306.191 350.777 308.608 C 363.006 311.168 373.102 309.319 381.065 303.062 C 388.174 297.659 392.583 289.838 394.289 279.6 C 395.853 269.788 394.573 260.759 390.45 252.511 C 385.899 243.553 379.003 238.078 369.76 236.088 C 358.527 233.528 348.573 235.305 339.899 241.42 L 339.899 241.42 Z  M 434.389 285.572 C 416.756 306.049 398.697 319.486 380.212 325.885 C 361.157 332.284 344.663 330.72 330.727 321.192 C 318.498 312.661 310.82 300.147 307.691 283.652 C 304.705 267.158 307.265 252.724 315.37 240.353 C 324.471 226.56 338.548 219.379 357.603 218.81 C 377.368 218.241 392.796 225.493 403.888 240.566 C 415.406 256.35 417.823 274.978 411.14 296.45 C 454.936 266.731 477.403 233.314 478.541 196.201 C 449.106 194.637 409.789 193.997 360.589 194.281 C 294.609 194.708 254.51 194.779 240.29 194.495 C 252.377 210.278 259.771 228.266 262.473 248.458 C 265.032 267.086 263.326 285.856 257.354 304.768 C 251.524 323.254 242.423 339.394 230.052 353.187 C 217.396 367.406 202.963 377.289 186.753 382.835 C 158.598 392.362 130.514 391.296 102.501 379.635 C 76.195 368.686 55.932 351.338 41.712 327.591 C 40.859 326.169 38.868 321.264 35.739 312.874 C 33.322 306.76 30.123 301.854 26.141 298.157 C 24.577 306.831 23.937 319.415 24.222 335.91 C 24.506 357.95 24.577 371.246 24.435 375.796 C 35.526 375.796 42.422 376.436 45.124 377.716 C 46.688 379.706 46.973 382.906 45.977 387.314 C 45.124 391.722 45.408 394.851 46.83 396.699 L 457.851 396.699 C 459.415 394.709 459.842 391.793 459.131 387.954 C 458.278 383.83 458.42 380.987 459.557 379.422 C 460.553 377.147 463.752 376.01 469.156 376.01 C 475.27 375.868 478.967 375.228 480.247 374.09 C 480.105 367.834 480.105 321.833 480.247 236.088 C 473.991 241.065 458.704 257.559 434.389 285.572 L 434.389 285.572 Z  M 38.299 408.644 L 52.163 408.644 C 58.135 408.502 62.685 408.502 65.814 408.644 C 184.122 414.19 325.181 413.053 488.992 405.232 C 492.689 399.402 494.609 390.941 494.751 379.85 C 494.751 377.148 494.609 372.384 494.325 365.559 C 494.04 359.586 493.969 354.965 494.111 351.694 C 498.377 243.625 500.653 187.244 500.937 182.551 C 488.139 200.61 482.025 233.244 482.593 280.454 C 483.447 357.525 483.802 396.842 483.66 398.406 C 425.359 399.97 348.644 400.61 253.514 400.326 C 126.532 399.899 49.035 399.828 21.022 400.112 C 19.031 385.324 18.675 362.004 19.955 330.152 C 20.951 302.565 19.529 281.52 15.689 267.016 C 9.717 297.446 8.579 342.949 12.277 403.525 C 18.818 406.654 27.492 408.36 38.299 408.644 L 38.299 408.644 Z  M 506.269 315.433 C 506.127 320.268 506.198 328.871 506.483 341.242 C 506.909 354.466 507.122 364.278 507.122 370.677 C 506.838 394.139 503.639 408.573 497.524 413.976 C 491.694 419.095 474.062 421.512 444.627 421.228 C 436.379 421.086 424.292 420.659 408.366 419.948 C 393.578 419.379 383.624 419.095 378.505 419.095 L 254.154 419.095 C 241.925 418.953 200.901 419.166 131.082 419.735 C 84.015 420.162 49.603 419.379 27.847 417.389 C 26.425 417.246 24.221 417.175 21.235 417.175 C 18.391 417.033 16.258 416.891 14.836 416.749 C 10.001 416.322 6.304 414.758 3.745 412.056 C -0.663 407.648 -2.583 396.557 -2.014 378.782 C -1.872 374.232 -1.445 366.766 -0.735 356.386 C -0.166 347.001 0.19 340.246 0.332 336.123 C 0.332 326.169 0.617 311.949 1.185 293.464 C 1.754 275.831 2.039 263.033 2.039 255.07 C 2.039 169.752 4.314 117.352 8.864 97.871 C 23.652 92.61 42.92 90.264 66.667 90.833 C 73.777 91.117 84.015 91.686 97.381 92.539 C 111.601 93.534 121.839 94.174 128.096 94.459 C 158.668 95.454 201.327 95.81 256.073 95.525 C 314.09 95.099 358.313 95.312 388.743 96.165 L 417.752 96.165 C 432.398 96.165 444.342 96.379 453.585 96.805 C 482.878 98.227 500.439 102.635 506.269 110.03 C 513.379 119.13 515.654 143.304 513.095 182.55 C 509.398 239.145 507.122 283.439 506.269 315.433 L 506.269 315.433 Z " fill-rule="evenodd" fill="rgb(0,0,0)"/></svg>