<svg width="512" height="512" viewBox="0 0 512 512"><path d="m497 189c13 4 18 12 15 24c0 0-77 285-77 285c-1 5-4 9-9 11c-5 3-10 3-15 2c0 0-208-56-208-56c-6-2-10-5-13-10c-2-4-3-9-2-14c0 0 13-47 13-47c0 0-92 25-92 25c-14 3-23-1-26-14c0 0-82-308-82-308c-3-12 1-20 14-25c0 0 233-62 233-62c5-1 10-1 15 2c5 2 8 6 9 11c0 0 34 125 34 125c0 0 191 51 191 51m-455-97c0 0 74 278 74 278c0 0 200-55 200-55c0 0-73-276-73-276c0 0-201 53-201 53m359 380c0 0 68-252 68-252c0 0-153-42-153-42c0 0 39 145 39 145c4 11-1 19-14 23c0 0-100 27-100 27c0 0-14 52-14 52c0 0 174 47 174 47"></path></svg>
