<?xml version="1.0" encoding="utf-8"?>
<svg width="512" height="512" viewBox="0 0 512 512" xmlns="http://www.w3.org/2000/svg">
  <path d="M 452.862 255.132 C 452.862 285.748 471.998 309.986 500.062 326.571 C 494.96 343.154 487.306 359.738 479.651 375.046 C 447.76 367.392 422.246 378.873 400.559 400.559 C 378.873 422.246 372.494 447.76 380.149 479.651 C 364.841 487.306 348.256 494.96 331.673 500.062 C 315.089 471.998 285.748 452.862 255.132 452.862 C 224.516 452.862 195.176 471.998 178.591 500.062 C 162.008 494.96 144.149 487.306 128.84 479.651 C 136.494 447.76 131.392 422.246 109.705 400.559 C 88.018 378.873 62.505 373.77 30.613 381.424 C 22.959 366.117 15.305 348.256 10.202 331.673 C 38.267 315.089 57.402 285.748 57.402 255.132 C 57.402 224.516 38.267 200.278 10.202 183.695 C 15.305 167.11 21.683 150.527 30.613 135.219 C 62.505 142.872 88.018 131.392 109.705 109.705 C 131.392 88.018 136.494 62.505 128.84 30.613 C 144.149 22.959 162.008 15.305 178.591 10.202 C 195.176 38.267 224.516 57.402 255.132 57.402 C 285.748 57.402 315.089 38.267 331.673 10.202 C 348.256 15.305 366.117 22.959 381.424 30.613 C 373.77 62.505 378.873 88.018 400.559 109.705 C 422.246 131.392 447.76 142.872 479.651 135.219 C 487.306 150.527 494.96 167.11 500.062 183.695 C 471.998 200.278 452.862 224.516 452.862 255.132 Z M 255.132 380.149 C 324.018 380.149 380.149 324.018 380.149 255.132 C 380.149 186.246 324.018 130.115 255.132 130.115 C 186.246 130.115 130.115 186.246 130.115 255.132 C 130.115 324.018 186.246 380.149 255.132 380.149 Z"/>
</svg>