<?xml version="1.0" standalone="no"?><!-- Generator: Gravit.io --><svg xmlns="http://www.w3.org/2000/svg" xmlns:xlink="http://www.w3.org/1999/xlink" style="isolation:isolate" viewBox="0 0 400 400" width="400" height="400"><path d=" M 350.222 31.208 C 360.941 46.896 367.696 68.046 370.487 94.658 C 364.979 67.714 356.882 47.029 346.195 32.602 C 333.65 15.898 316.914 6.586 295.985 4.664 C 318.927 2.796 337.006 11.644 350.222 31.208 Z  M 242.645 259.526 C 238.467 259.816 232.864 257.91 225.837 253.808 L 216.802 247.872 C 212.918 245.169 209.915 243.26 207.795 242.143 C 200.768 238.042 195.105 236.215 190.808 236.661 C 185.149 237.434 180.768 241.898 177.664 250.055 C 190.496 261.658 204.275 269.898 219 274.776 C 221.07 274.493 222.792 273.204 224.165 270.907 C 225.758 268.159 227.147 266.493 228.333 265.91 C 229.594 265.878 230.771 266.772 231.863 268.591 C 232.816 270.429 233.915 271.263 235.157 271.093 C 241.487 270.088 243.983 266.232 242.645 259.526 Z  M 178.233 181.651 C 181.34 188.959 182.982 195.834 183.159 202.277 C 181.516 206.719 174.61 211.739 162.44 217.338 C 162.484 216.629 165.152 224.841 170.445 241.973 C 168.393 242.393 174.816 237.439 189.714 227.11 C 192.562 228.408 201.444 233.732 216.358 243.083 C 227.094 249.63 237.167 253.386 246.577 254.35 C 251.756 241.833 253.08 226.82 250.548 209.311 C 247.991 192.649 242.693 178.049 234.654 165.509 C 226.088 152.199 216.569 144.782 206.098 143.26 C 194.191 141.512 182.784 148.061 171.877 162.907 C 172.443 167.047 174.561 173.295 178.233 181.651 L 178.233 181.651 Z  M 149.079 175.088 C 158.181 200.557 162.362 212.639 161.621 211.334 C 170.485 208.296 176.566 204.443 179.865 199.774 C 171.78 178.666 165.94 165.756 162.344 161.045 C 160.782 161.961 156.36 166.642 149.079 175.088 Z  M 24.6 355.313 C 28.642 335.501 30.713 325.446 30.814 325.152 C 33.854 314.473 38.323 307.045 44.219 302.865 C 51.539 297.788 61.837 297.014 75.112 300.544 C 78.613 301.471 102.136 314.145 145.679 338.565 C 175.068 355.077 198.701 357.754 216.579 346.596 C 225.26 341.192 230.625 332.095 232.674 319.302 C 234.584 306.529 232.784 293.349 227.273 279.761 C 202.047 278.286 182.643 266.948 169.063 245.746 C 158.137 228.54 150.236 203.118 145.361 169.48 C 155.447 163.041 161.255 157.187 162.785 151.917 C 150.989 115.991 150.299 85.718 160.714 61.098 C 172.346 34.063 195.417 20.789 229.928 21.278 C 196.183 24.34 174.059 38.89 163.557 64.928 C 153.932 89.158 155.331 119.475 167.754 155.878 C 172.954 149.685 181.557 144.222 193.563 139.489 C 206.222 134.386 217.85 132.025 228.446 132.405 C 241.564 132.722 252.682 139.498 261.8 152.734 C 270.002 164.407 275.624 179.315 278.664 197.457 C 281.453 214.791 281.403 230.895 278.514 245.77 C 275.444 261.373 269.815 271.632 261.629 276.545 C 258.781 278.34 254.45 279.565 248.634 280.218 C 242.286 281.085 237.857 282.112 235.347 283.298 C 237.409 300.45 237.751 313.759 236.372 323.226 C 234.668 334.425 230.203 342.908 222.977 348.675 C 209.297 359.681 191.258 361.934 168.86 355.433 C 156.412 351.791 140.316 344.078 120.571 332.294 C 117.822 330.701 112.583 327.34 104.853 322.21 C 97.732 317.419 92.041 313.837 87.78 311.467 C 73.782 303.678 62.107 301.055 52.753 303.598 C 44.347 305.871 38.401 311.744 34.915 321.218 C 33.072 326.25 31.248 336.059 29.445 350.645 C 27.747 363.952 25.413 373.62 22.44 379.649 C 17.913 388.703 10.433 394.153 0 396 C 1.85 393.076 4.378 390.481 7.583 388.216 C 10.926 385.931 13.373 383.77 14.922 381.73 C 18.817 376.278 22.042 367.472 24.599 355.313 L 24.6 355.313 Z  M 342.566 180.504 C 337.819 161.189 330.674 149.02 321.131 143.997 C 314.036 147.637 309.467 153.814 307.424 162.529 C 305.562 170.516 305.922 179.324 308.502 188.953 C 311.045 198.306 315.093 206.329 320.647 213.022 C 326.533 220.091 332.911 224.07 339.781 224.959 C 346.598 215.171 347.526 200.353 342.566 180.504 Z  M 391.289 162.04 C 388.08 145.749 382.086 133.773 373.307 126.115 C 370.917 124.052 367.312 122.365 362.494 121.055 C 357.519 119.626 354.099 118.265 352.236 116.973 C 351.389 116.948 350.648 117.19 350.015 117.698 C 349.281 118.501 348.638 118.941 348.086 119.016 C 369.808 132.92 382.574 159.997 386.385 200.247 C 392.939 191.62 394.574 178.884 391.289 162.04 Z  M 353.468 113.641 C 355.362 113.102 358.355 113.396 362.445 114.524 C 365.67 115.489 368.205 115.003 370.049 113.064 C 369.101 110.241 366.767 108.591 363.046 108.115 C 361.905 107.99 360.142 107.95 357.758 107.994 C 355.355 107.901 353.661 107.851 352.676 107.845 L 353.468 113.641 Z  M 335.748 68.825 C 332.206 52.157 327.828 40.172 322.613 32.87 C 315.697 23.411 303.159 18.587 284.997 18.396 C 283.184 18.503 275.075 18.837 260.671 19.398 C 250.464 19.808 242.151 19.678 235.733 19.008 C 240.451 17.521 249.353 16.305 262.439 15.361 C 291.924 13.021 312.531 19.274 324.26 34.121 C 332.549 44.377 340.779 67.575 348.949 103.715 C 350.467 103.508 352.8 103.611 355.95 104.024 C 359.513 104.381 361.995 104.534 363.394 104.484 C 369.009 104.419 371.998 102.113 372.361 97.565 C 372.714 107.358 375.897 118.311 381.91 130.424 C 389.228 144.889 393.442 154.647 394.554 159.697 C 397.568 172.5 397.941 183.978 395.672 194.129 C 394.356 199.932 391.114 208.108 385.947 218.655 C 377.889 234.798 374.355 242.381 375.346 241.402 C 368.723 248.492 358.476 252.212 344.605 252.56 C 331.857 252.895 321.54 250.438 313.653 245.188 C 304.843 239.362 297.042 226.509 290.25 206.63 C 283.596 186.732 281.114 169.075 282.805 153.661 C 284.314 142.067 291.514 132.508 304.405 124.983 C 315.476 118.55 329.697 114.077 347.068 111.564 C 343.924 103.98 340.15 89.733 335.748 68.825 L 335.748 68.825 Z  M 137.697 65.505 C 145.05 39.054 161.581 24.214 187.289 20.984 C 163.018 27.533 147.654 43.198 141.198 67.98 C 136.214 87.077 136.233 114.49 141.253 150.217 C 132.475 116.831 131.29 88.593 137.697 65.505 Z  M 274.652 4.415 C 275.775 4.402 277.431 4.176 279.62 3.736 L 284.382 3.086 C 287.989 2.734 290.338 3.467 291.43 5.286 C 284.116 6.285 278.523 5.995 274.652 4.415 L 274.652 4.415 Z " fill="rgb(0,0,0)"/></svg>