<svg width="512" height="512" viewBox="0 0 512 512"><path d="m458 140c13 1 23 12 22 24l-14 263c-1 13-12 22-25 21l-330-16c-13-1-23-10-22-23l2-46l-15 1c-12 1-22-7-23-18l-21-236c-1-11 7-21 19-22l296-24c12-1 22 7 23 18l5 54z m-355 6c1-12 11-22 24-22l219 11l-2-31l-1 0l0-1c-1-5-5-8-10-8l-261 22c-5 0-10 4-10 9l0 1l16 178l18-25z m334 236l10-198l0-1c0-6-5-10-11-10l-58-3l-29-2l-204-9c-6 0-11 4-12 9l0 1l-3 63l-7 128l0 7l6-7l102-109c4-4 8-6 14-6c6 0 11 3 14 7l43 49l3 3c2 2 6 4 10 4c4 0 5-1 9-3l17-12c4-3 7-4 11-4c4 0 9 2 11 5l27 33z m-64-120c-20 0-35-15-35-35c0-20 16-35 35-35c20 0 35 16 35 35c0 19-16 35-35 35z"></path></svg>
