<svg width="512" height="512" viewBox="0 0 512 512"><path d="m491 469l-43 0l0-21l-21 0l0 21l-43 0l0-21l-21 0l0 21l-43 0l0-21l-21 0l0 21l-43 0l0-21l-21 0l0 21l-43 0l0-21l-21 0l0 21l-94 0l112-67l56-163l83 145l160-266l-37-22l-123 204l-93-164l-81 237l-111 67l0-440l-43 0l0 512l512 0l0-64l-21 0z m0-469l21 0l0 21l-21 0z m-64 0l21 0l0 21l-21 0z m-64 0l21 0l0 21l-21 0z m-64 0l21 0l0 21l-21 0z m-64 0l21 0l0 21l-21 0z m-64 0l21 0l0 21l-21 0z m-64 0l21 0l0 21l-21 0z m-64 0l21 0l0 21l-21 0z m448 64l21 0l0 21l-21 0z m-64 0l21 0l0 21l-21 0z m-64 0l21 0l0 21l-21 0z m-64 0l21 0l0 21l-21 0z m-64 0l21 0l0 21l-21 0z m-64 0l21 0l0 21l-21 0z m-64 0l21 0l0 21l-21 0z m-64 0l21 0l0 21l-21 0z m448 64l21 0l0 21l-21 0z m-128 0l21 0l0 21l-21 0z m-64 0l21 0l0 21l-21 0z m-128 0l21 0l0 21l-21 0z m-64 0l21 0l0 21l-21 0z m-64 0l21 0l0 21l-21 0z m448 64l21 0l0 21l-21 0z m-192 0l21 0l0 21l-21 0z m-128 0l21 0l0 21l-21 0z m-64 0l21 0l0 21l-21 0z m-64 0l21 0l0 21l-21 0z m448 64l21 0l0 21l-21 0z m-64 0l21 0l0 21l-21 0z m-320 0l21 0l0 21l-21 0z m-64 0l21 0l0 21l-21 0z m448 64l21 0l0 21l-21 0z m-64 0l21 0l0 21l-21 0z m-192 0l21 0l0 21l-21 0z m-128 0l21 0l0 21l-21 0z m-64 0l21 0l0 21l-21 0z m448 64l21 0l0 21l-21 0z m-64 0l21 0l0 21l-21 0z m-64 0l21 0l0 21l-21 0z m-128 0l21 0l0 21l-21 0z m-192 0l21 0l0 21l-21 0z"></path></svg>
