<svg width="512" height="512" viewBox="0 0 512 512"><path d="m256 0c-141 0-256 115-256 256c0 141 115 256 256 256c141 0 256-115 256-256c0-141-115-256-256-256z m0 472c-119 0-216-97-216-216c0-119 97-216 216-216c119 0 216 97 216 216c0 119-97 216-216 216z m-96-168c-9 0-16 7-16 16c0 9 7 16 16 16c9 0 16-7 16-16c0-9-7-16-16-16z m0-64c-9 0-16 7-16 16c0 9 7 16 16 16c9 0 16-7 16-16c0-9-7-16-16-16z m0-64c-9 0-16 7-16 16c0 9 7 16 16 16c9 0 16-7 16-16c0-9-7-16-16-16z m208 8c0-4-4-8-8-8l-144 0c-4 0-8 4-8 8l0 16c0 4 4 8 8 8l144 0c4 0 8-4 8-8z m0 64c0-4-4-8-8-8l-144 0c-4 0-8 4-8 8l0 16c0 4 4 8 8 8l144 0c4 0 8-4 8-8z m0 64c0-4-4-8-8-8l-144 0c-4 0-8 4-8 8l0 16c0 4 4 8 8 8l144 0c4 0 8-4 8-8z"></path></svg>
