<?xml version="1.0" standalone="no"?><!-- Generator: Gravit.io --><svg xmlns="http://www.w3.org/2000/svg" xmlns:xlink="http://www.w3.org/1999/xlink" style="isolation:isolate" viewBox="0 0 512 512" width="512" height="512"><path d=" M 459.048 152.792 C 461.967 153.339 463.609 151.697 463.974 147.865 C 435.691 91.845 401.659 59.365 361.88 50.423 C 411.878 91.845 444.267 125.968 459.048 152.792 L 459.048 152.792 Z  M 447.004 150.329 C 418.538 106.17 388.521 78.616 356.953 67.667 C 362.245 72.594 370 79.437 380.218 88.196 C 391.167 97.502 398.922 104.253 403.484 108.45 C 421.184 125.056 434.049 141.387 442.077 157.445 C 445.362 156.35 447.004 153.978 447.004 150.329 L 447.004 150.329 Z  M 434.687 172.225 C 419.177 127.154 389.981 97.137 347.099 82.174 C 391.623 117.027 419.177 147.865 429.76 174.689 C 432.498 175.054 434.14 174.232 434.687 172.225 Z  M 335.056 111.188 C 339.435 116.479 349.563 126.88 365.438 142.391 C 380.583 157.171 391.532 168.667 398.283 176.879 C 387.7 146.04 366.624 124.143 335.056 111.188 L 335.056 111.188 Z  M 357.5 145.402 C 347.464 136.826 335.877 131.169 322.739 128.432 C 351.752 150.876 368.814 166.295 373.923 174.689 C 373.193 164.288 367.719 154.525 357.5 145.402 L 357.5 145.402 Z  M 364.069 184.269 C 353.121 158.905 335.33 144.307 310.695 140.475 C 340.256 167.664 356.497 183.083 359.416 186.732 C 361.971 187.097 363.522 186.276 364.069 184.269 Z  M 240.077 342.475 C 269.091 347.402 294.09 339.19 315.075 317.84 C 337.702 295.031 343.541 266.748 332.593 232.99 C 325.659 211.64 311.973 196.586 291.536 187.827 C 272.741 179.981 252.669 178.795 231.319 184.269 C 209.605 189.926 192.999 201.057 181.503 217.662 C 168.73 236.457 165.537 258.628 171.923 284.174 C 180.134 316.655 202.853 336.089 240.077 342.475 Z  M 180.682 317.293 C 171.558 307.622 166.267 300.596 164.807 296.217 C 163.712 303.333 166.175 311.18 172.197 319.756 C 177.671 327.603 184.058 333.533 191.357 337.548 C 191.904 332.256 188.346 325.504 180.682 317.293 Z  M 170.554 331.8 C 159.423 321.034 153.402 312.457 152.49 306.071 C 149.388 315.924 151.577 325.231 159.059 333.989 C 162.891 338.369 170.464 344.391 181.777 352.055 C 183.784 348.04 180.043 341.288 170.554 331.8 Z  M 184.24 373.952 C 185.335 369.937 180.135 362.912 168.639 352.876 C 152.216 338.643 143.64 331.07 142.91 330.158 C 148.749 347.675 162.526 362.273 184.24 373.952 Z  M 140.72 364.645 C 151.304 375.959 164.168 383.988 179.314 388.732 C 176.029 384.717 166.084 374.773 149.479 358.897 C 137.071 347.037 128.403 335.905 123.476 325.504 C 123.841 339.555 129.589 352.602 140.72 364.645 Z  M 106.233 325.505 C 106.78 341.015 112.619 355.704 123.75 369.572 C 134.151 382.528 147.016 392.108 162.344 398.312 C 129.316 361.817 110.612 337.548 106.233 325.505 L 106.233 325.505 Z  M 128.951 384.9 C 110.703 368.295 99.116 353.332 94.189 340.011 C 94.737 357.529 102.857 373.86 118.55 389.006 C 126.214 396.487 141.633 407.709 164.807 422.672 C 160.793 415.373 148.841 402.783 128.951 384.9 Z  M 79.683 356.982 C 92.456 393.294 118.367 419.297 157.417 434.99 C 121.47 403.969 95.558 377.966 79.683 356.982 L 79.683 356.982 Z  M 91.452 410.355 C 100.758 419.479 118.732 433.347 145.374 451.96 C 148.111 452.507 149.662 450.865 150.027 447.033 C 109.882 419.479 79.865 387.82 59.975 352.055 C 62.347 372.492 72.84 391.925 91.452 410.355 L 91.452 410.355 Z  M 137.983 459.076 C 97.839 431.34 67 398.951 45.468 361.908 C 47.841 382.71 58.698 402.509 78.04 421.304 C 85.704 428.785 104.043 443.018 133.057 464.003 C 135.976 464.733 137.619 463.091 137.983 459.076 Z  M 310.695 174.689 C 310.695 179.068 314.801 185.728 323.012 194.67 C 331.589 203.976 336.424 211.914 337.519 218.483 C 338.979 218.665 340.256 218.3 341.351 217.388 C 342.811 216.476 343.906 216.02 344.636 216.02 C 338.614 196.312 327.301 182.536 310.695 174.689 L 310.695 174.689 Z  M 352.026 206.166 C 354.946 199.597 351.935 191.294 342.993 181.258 C 334.417 171.769 325.294 165.474 315.622 162.372 C 337.337 184.999 349.471 199.597 352.026 206.166 Z  M 356.953 108.998 C 387.244 136.552 407.499 164.105 417.717 191.659 C 420.454 192.024 422.096 191.203 422.644 189.195 C 412.608 150.328 390.711 123.596 356.953 108.998 Z  M 400.473 460.171 C 351.205 494.111 295.276 508.344 232.687 502.87 C 192.178 499.403 158.967 490.553 133.056 476.32 C 98.933 457.343 71.014 432.617 49.3 402.144 C 24.483 367.109 10.25 327.786 6.601 284.174 C 2.951 240.563 8.608 199.871 23.571 162.098 C 37.804 126.516 59.336 96.133 88.167 70.952 C 116.451 46.135 149.114 28.526 186.156 18.125 C 223.928 7.359 262.978 5.17 303.305 11.556 C 336.333 16.848 367.263 29.53 396.094 49.602 C 424.56 69.309 448.099 94.126 466.712 124.052 C 508.498 190.838 517.348 262.003 493.262 337.548 C 477.022 388.093 446.092 428.968 400.473 460.171 Z  M 261.975 269.393 C 256.865 274.137 252.03 274.138 247.468 269.393 C 242.723 264.831 242.723 259.996 247.468 254.886 C 259.511 252.514 264.347 257.35 261.975 269.393 L 261.975 269.393 Z " fill="rgb(0,0,0)"/></svg>