<?xml version="1.0" standalone="no"?><!-- Generator: Gravit.io --><svg xmlns="http://www.w3.org/2000/svg" xmlns:xlink="http://www.w3.org/1999/xlink" style="isolation:isolate" viewBox="0 0 512 512" width="512" height="512"><path d=" M 436.135 3 C 449.698 3 461 13.172 461 26.734 L 461 369.187 C 461 369.187 457.609 417.786 447.438 431.349 C 437.266 448.302 419.182 455.083 398.839 455.083 L 357.021 455.083 C 325.375 455.083 298.25 432.479 298.25 400.833 C 298.25 369.187 325.375 346.583 357.021 346.583 L 424.833 346.583 L 424.833 129.583 L 189.75 172.531 L 189.75 434.74 C 189.75 443.781 186.359 465.255 175.057 481.078 C 173.927 483.339 172.797 484.469 171.667 486.729 C 171.667 487.859 170.536 487.859 169.406 488.99 C 159.234 501.422 143.411 509.333 126.458 509.333 L 84.641 509.333 C 52.995 509.333 27 486.729 27 455.083 C 27 423.437 52.995 400.833 84.641 400.833 L 153.583 400.833 L 153.583 77.594 C 154.714 61.771 168.276 45.948 184.099 41.427 L 430.484 4.13 C 430.484 4.13 433.875 3 436.135 3 Z " fill="rgb(0,0,0)"/></svg>