<svg width="512" height="512" viewBox="0 0 512 512"><path d="m410 26c14 0 26 5 36 14c10 10 15 22 15 37c0 0 0 358 0 358c0 14-5 26-15 36c-10 10-22 15-36 15c0 0-308 0-308 0c-13 0-25-5-35-15c-11-10-16-22-16-36c0 0 0-358 0-358c0-15 5-27 16-37c10-9 22-14 35-14c0 0 308 0 308 0m0 409c0 0 0-358 0-358c0 0-308 0-308 0c0 0 0 358 0 358c0 0 308 0 308 0m-128-128c0 0 0 26 0 26c0 0-128 0-128 0c0 0 0-26 0-26c0 0 128 0 128 0m76-102c0 0 0 25 0 25c0 0-102 0-102 0c0 0 0-25 0-25c0 0 102 0 102 0m-102-26c0 0 0-51 0-51c0 0 102 0 102 0c0 0 0 51 0 51c0 0-102 0-102 0m-26-51c0 0 0 102 0 102c0 0-76 0-76 0c0 0 0-102 0-102c0 0 76 0 76 0m-25 128c0 0 0 26 0 26c0 0-51 0-51 0c0 0 0-26 0-26c0 0 51 0 51 0m25 26c0 0 0-26 0-26c0 0 128 0 128 0c0 0 0 26 0 26c0 0-128 0-128 0m128 76c0 0 0 26 0 26c0 0-204 0-204 0c0 0 0-26 0-26c0 0 204 0 204 0m-51-25c0 0 0-26 0-26c0 0 51 0 51 0c0 0 0 26 0 26c0 0-51 0-51 0"></path></svg>
