<?xml version="1.0" encoding="utf-8"?>
<svg width="512" height="512" viewBox="0 0 512 512" xmlns="http://www.w3.org/2000/svg">
  <path d="M 359.643 352.824 C 371.981 357.311 347.305 348.338 359.643 352.824 Z M 359.643 352.824 C 391.048 364.041 411.237 392.081 411.237 425.729 L 99.43 425.729 C 99.43 401.054 109.523 378.621 129.712 364.041 C 146.537 351.703 164.482 350.581 184.671 346.095 C 192.523 344.974 211.59 340.486 213.833 331.514 C 216.077 322.541 214.955 314.69 214.955 305.716 C 214.955 302.352 214.955 302.352 212.712 300.109 C 208.226 295.623 205.983 290.015 203.739 284.406 C 201.495 275.434 200.374 266.46 199.252 257.488 C 189.158 259.731 188.037 239.542 185.793 233.933 C 184.671 229.447 177.942 207.015 189.158 210.38 C 185.793 204.772 184.671 195.799 183.55 189.069 C 181.307 174.488 181.307 159.907 186.914 145.327 C 198.131 116.165 228.415 101.584 258.697 102.705 C 287.86 103.827 315.9 120.651 324.873 149.813 C 329.359 163.273 328.237 178.975 325.994 193.556 C 324.873 199.164 323.751 205.894 321.508 210.38 C 332.723 207.015 325.994 232.812 324.873 236.177 C 322.63 241.785 321.508 259.731 311.413 257.488 C 310.292 268.703 309.17 282.163 303.562 292.258 C 302.441 294.501 295.71 301.23 295.71 303.473 L 295.71 315.811 C 295.71 321.419 295.71 327.028 297.955 332.636 C 300.198 338.243 309.17 340.486 313.656 341.608 C 329.359 347.217 343.94 347.217 359.643 352.824 Z M 128.591 338.243 L 130.834 338.243 Z M 128.591 338.243 C 118.497 343.852 109.523 350.581 101.673 359.554 C 100.551 361.798 94.942 371.892 93.821 371.892 L 4.092 371.892 C 4.092 349.46 17.552 333.757 37.74 327.028 C 44.471 324.784 68.024 322.541 71.389 314.69 C 73.632 309.082 72.51 302.352 72.51 296.744 C 61.295 297.866 45.592 295.623 36.619 288.892 C 34.376 286.649 39.984 278.798 41.105 275.434 C 42.228 270.946 43.349 267.582 44.471 263.096 C 45.592 253.002 45.592 241.785 45.592 231.69 C 45.592 213.745 44.471 192.434 54.565 176.731 C 63.538 162.151 80.362 156.543 97.186 156.543 C 124.105 156.543 145.415 171.124 149.901 198.043 C 153.267 215.989 151.024 233.933 152.145 251.879 C 152.145 260.853 154.388 269.825 157.753 278.798 C 158.875 281.041 163.361 286.649 161.118 288.892 L 154.388 292.258 C 148.78 294.501 142.05 295.623 135.321 296.744 C 134.2 296.744 126.348 296.744 125.226 297.866 C 124.105 298.987 125.226 307.961 125.226 310.204 C 125.226 314.69 126.348 316.933 130.834 318.054 C 137.564 320.298 152.145 321.419 156.631 327.028 C 158.875 330.392 157.753 332.636 154.388 332.636 C 146.537 333.757 138.686 334.879 130.834 338.243 C 133.078 337.122 133.078 336 129.712 338.243 C 120.74 342.73 125.226 340.486 128.591 338.243 Z M 471.803 327.028 C 491.992 333.757 506.573 349.46 506.573 371.892 L 416.845 371.892 C 414.601 362.919 405.628 356.189 398.899 350.581 C 389.926 343.852 378.71 336 367.493 333.757 C 364.129 332.636 349.548 334.879 352.913 328.149 C 355.156 323.662 363.007 322.541 367.493 321.419 C 371.981 320.298 384.318 319.176 385.439 313.568 C 385.439 312.447 386.561 297.866 385.439 297.866 C 378.71 297.866 371.981 296.744 365.25 295.623 C 360.764 294.501 357.4 293.379 352.913 291.136 C 346.183 287.771 350.669 284.406 352.913 278.798 C 368.615 242.907 341.697 180.097 388.805 161.029 C 405.628 154.3 426.939 155.421 442.642 164.394 C 459.465 174.488 465.074 194.677 465.074 213.745 C 465.074 236.177 460.587 263.096 472.925 283.284 C 475.168 286.649 477.411 287.771 472.925 290.015 C 470.682 291.136 468.439 291.136 466.196 292.258 L 452.736 295.623 C 452.736 295.623 442.642 296.744 438.155 296.744 C 438.155 301.23 435.912 311.325 439.277 315.811 C 446.007 323.662 462.831 323.662 471.803 327.028 Z"/>
</svg>