<?xml version="1.0" encoding="utf-8"?>
<svg width="512" height="512" viewBox="0 0 512 512" xmlns="http://www.w3.org/2000/svg">
  <path d="M 492.874 495.578 L 16.422 495.578 C 16.422 495.578 16.422 463.318 18.904 445.948 C 21.385 432.299 39.996 414.928 119.405 385.149 C 197.574 356.613 193.851 370.261 193.851 316.908 C 193.851 282.167 176.48 303.26 165.313 237.499 C 160.351 211.443 157.869 228.814 147.943 187.869 C 142.98 166.776 151.666 164.294 150.425 154.368 C 149.184 144.443 147.943 134.517 145.461 113.423 C 142.98 87.367 167.795 19.126 254.648 19.126 C 341.501 19.126 366.317 87.367 363.835 113.423 C 361.354 134.517 360.113 144.443 358.872 154.368 C 357.632 164.294 366.317 166.776 361.354 187.869 C 351.427 228.814 348.947 211.443 343.983 237.499 C 332.816 303.26 315.445 282.167 315.445 316.908 C 315.445 370.261 311.724 356.613 389.891 385.149 C 469.3 414.928 487.911 432.299 490.393 445.948 C 492.874 463.318 492.874 495.578 492.874 495.578 Z"/>
</svg>