<svg width="512" height="512" viewBox="0 0 512 512"><path d="m256 256c-18 0-32-14-32-32l0-160c0-18 14-32 32-32c18 0 32 14 32 32l0 160c0 18-14 32-32 32z m123-187c61 40 101 109 101 187c0 124-100 224-224 224c-124 0-224-100-224-224c0-78 40-147 101-187c5-3 11-5 17-5c18 0 32 14 32 32c0 6-2 12-5 17c-2 3-4 6-7 8c-1 1-3 2-4 3c-8 6-16 12-23 19c-30 30-47 70-47 113c0 43 17 83 47 113c30 30 70 47 113 47c43 0 83-17 113-47c30-30 47-70 47-113c0-43-17-83-47-113c-7-7-15-13-23-19c-1-1-3-2-4-3c-3-2-5-5-7-8c-3-5-5-11-5-17c0-18 14-32 32-32c6 0 12 2 17 5z"></path></svg>
