<svg width="512" height="512" viewBox="0 0 512 512"><path d="m256 32c124 0 224 100 224 224c0 124-100 224-224 224c-124 0-224-100-224-224c0-124 100-224 224-224z m20 327c1-18-12-31-29-31c-16 0-30 11-30 29c0 18 12 30 28 30c17 0 31-10 31-28z m49-128c7-10 12-22 12-36c0-23-9-40-25-52c-17-13-37-18-62-18c-19 0-34 4-47 13c-19 13-28 34-28 68l49 0c0-9-1-19 4-27c5-8 13-15 26-15c13 0 19 3 25 11c5 7 8 15 8 23c0 7-4 14-8 20c-2 4-6 7-10 10c0 0-26 15-35 30c-7 11-9 24-10 41c0 1 0 4 4 4l39 0c0 0 5-3 5-4c0-6 1-15 2-19c2-7 6-12 12-17l14-9c12-9 21-17 25-23z"></path></svg>
